<?xml version="1.0" encoding="utf-8"?>
<!-- Generator: Adobe Illustrator 27.1.0, SVG Export Plug-In . SVG Version: 6.00 Build 0)  -->
<svg version="1.1" id="Capa_1" xmlns="http://www.w3.org/2000/svg" xmlns:xlink="http://www.w3.org/1999/xlink" x="0px" y="0px"
	 viewBox="0 0 80 80" style="enable-background:new 0 0 80 80;" xml:space="preserve">
<path d="M39.82,55.98c-7.29,7.36-20.91,28.24-33.01,18.01C1.8,69.74,1.45,62.71,5.3,57.63c4.81-6.34,11.92-13,18.33-17.69
	C16.23,32.56-5.59,17.93,5.87,6.01C17.54-6.14,32.96,15.38,39.72,23.4c7.12-7.34,20.12-27.25,32.11-18.5
	C86.91,15.9,63.53,32.35,56.2,39.63c4.65,4.59,9.34,9.16,13.97,13.77c3.64,3.62,7.24,6.94,6.8,12.49
	c-0.76,9.45-12.71,14.55-19.67,7.7C51.52,67.9,45.87,62.09,39.82,55.98z"/>
</svg>
