<?xml version="1.0" encoding="utf-8"?>
<!-- Generator: Adobe Illustrator 27.1.0, SVG Export Plug-In . SVG Version: 6.00 Build 0)  -->
<svg version="1.1" id="Capa_1" xmlns="http://www.w3.org/2000/svg" xmlns:xlink="http://www.w3.org/1999/xlink" x="0px" y="0px"
	 viewBox="0 0 80 80" style="enable-background:new 0 0 80 80;" xml:space="preserve">
<style type="text/css">
	.st0{fill:#FFFFFF;}
</style>
<path d="M77.95,17.24C77.95,17.24,77.95,17.24,77.95,17.24c0,0.01-0.08,0.38-0.24,0.77c-0.28,0.67-0.86,1.55-2.48,3.07
	c-1.13,1.06-2.15,2.24-3.16,3.31c-5.43-5.49-10.73-10.85-16.12-16.31c1.02-0.93,1.98-2.09,3.09-3.15c1.28-1.22,2.39-1.96,4.02-2.48
	C64.14,2.11,65,2.06,66,2c0.92-0.06,1.38-0.08,2,0c1.41,0.19,2.37,0.74,2.64,0.91c0.44,0.27,0.75,0.52,0.92,0.68
	c2.28,2.15,4.71,4.09,5.88,6.62c0.24,0.53,0.48,1.05,0.56,1.79c0.04,0.37,0.01,0.5,0,2c0,0.61,0,0.92,0,1
	C78.02,15.46,78.11,16.66,77.95,17.24z"/>
<path class="st0" d="M4.84,70.94c0.57,0.35,0.71,1.09,1.33,1.41c0.22,0.11,0.63,0.1,0.6,0.52c-0.64,0-1.29,0-1.93,0
	C4.84,72.23,4.84,71.59,4.84,70.94z"/>
<path d="M49.13,14.52c5.55,5.57,10.85,10.91,16.35,16.43c-1.04,0.97-2.15,1.94-3.19,2.98c-11.7,11.66-23.42,23.3-35.08,35
	c-2.02,2.03-4.29,3.52-6.97,4.48c-4.42,1.6-8.82,3.26-13.43,4.25c-0.72,0.15-1.46,0.3-2.2,0.33c-1.49,0.06-2.28-0.65-2.55-2.12
	c-0.21-1.16,0.09-2.27,0.37-3.35c1.02-4.01,2.11-7.99,3.51-11.89c1.01-2.83,2.56-5.28,4.73-7.44
	c12.49-12.38,24.91-24.82,37.35-37.25C48.44,15.53,48.76,15.01,49.13,14.52z"/>
</svg>
