<?xml version="1.0" encoding="utf-8"?>
<!-- Generator: Adobe Illustrator 27.1.0, SVG Export Plug-In . SVG Version: 6.00 Build 0)  -->
<svg version="1.1" id="Capa_1" xmlns="http://www.w3.org/2000/svg" xmlns:xlink="http://www.w3.org/1999/xlink" x="0px" y="0px"
	 viewBox="0 0 80 80" style="enable-background:new 0 0 80 80;" xml:space="preserve">
<style type="text/css">
	.st0{fill:none;}
	.st1{fill:#FFFFFF;}
</style>
<rect x="-62.37" y="-80.28" class="st0" width="212" height="260"/>
<g>
	<path class="st1" d="M74.46,42.84c-0.27,6.34-2.52,13.06-6.59,18.18c-2.26,2.85-4.82,5.64-7.81,7.76c-2.9,2.05-6.3,3.13-9.44,4.72
		c-0.39-0.57-0.42-0.93-0.19-2.05c10.47-3.67,19.3-12.59,21.51-23.73c1.04-5.23,1.25-10.45-0.03-15.64
		c-1.33-5.4-4.27-10.33-7.91-14.6c-2.11-2.47-5.2-4.52-7.96-6.22c-1.31-0.8-2.94-1.53-4.34-2.07c-1.4-0.54-1.45-0.62-1.33-2.3
		c2.72,0,5.76,2.36,8.05,3.68c3.27,1.89,5.72,4.57,8.34,7.25c2.56,2.62,3.99,6.12,5.47,9.4c1.44,3.17,2.05,6.4,2.22,9.89
		C74.46,39.03,74.46,40.93,74.46,42.84z"/>
	<path class="st1" d="M29.2,71.41c0.22,1.03,0.19,1.37-0.16,2.02C18.93,69.66,8.91,61.35,6.44,50.24c-0.22-1.01-0.4-2.04-0.68-3.04
		c-0.43-1.49-0.46-2.8-0.47-4.44c0-3.35-0.38-6.92,0.51-10.09c1.58-5.67,3.82-10.49,7.59-15.14c2.25-2.78,4.9-5.14,7.93-7.05
		c1.24-0.78,2.42-1.57,3.78-2.07c1.22-0.45,3-1.49,4.23-1.49c-0.04,0.74-0.08,1.42-0.12,2.13c-1.63,0.22-3.35,1.07-4.85,1.84
		c-2.12,1.09-4.07,2.58-5.85,4.16c-3.68,3.25-6.74,7.01-8.74,11.51c-0.88,1.97-1.53,4.03-2.1,6.02c-0.79,2.76-0.61,5.6-0.61,8.45
		c0.01,2.77,0.32,5.06,0.98,7.72c0.25,1.01,0.51,2,0.86,2.98c0.28,0.78,0.81,2.67,1.44,3.13c0.09,1.25,1.74,3.19,2.42,4.22
		c1.14,1.74,2.6,3.35,4.1,4.8c2.86,2.76,6.5,5.54,10.26,6.84C27.78,70.94,28.47,71.16,29.2,71.41z"/>
	<path class="st1" d="M47.44,17.07c-0.58,0-1.09,0-1.71,0c-0.13-3.16,0-6.28-0.08-9.49c-1.61-0.26-3.29-0.51-4.86-0.68
		c-0.04,1.15-0.07,2.25-0.1,3.37c-0.61,0-1.12,0-1.67,0c-0.29-1.09,0.14-2.24-0.33-3.41c-1.47,0.5-2.8,0.54-4.34,0.6
		c0,3.19,0,6.31,0,9.42c-0.77,0.33-1.44,0.33-2.16,0.04c0-5.23,0-10.45,0-15.68c0.72-0.3,1.39-0.32,2.15,0.03c0,1.42,0,2.86,0,4.42
		c1.54-0.09,3.04-0.39,4.58-0.64c0-1.3,0-2.57,0-3.88c2.63-0.76,1.84,1.98,1.84,3.82c1.68,0.3,3.24,0.62,4.93,0.62
		c0-1.07-0.39-3.1,0.02-4.05c0.34-0.79,0.87-0.55,1.74-0.45C47.44,6.43,47.44,11.71,47.44,17.07z"/>
	<path class="st1" d="M38.93,72.96c0-0.92,0-1.83,0-2.8c0.62,0,1.15,0,1.81,0c0,0.94,0,1.85,0,2.86c1.69,0.06,3.26,0.02,4.94-0.15
		c0-3.18,0-6.32,0-9.51c0.66,0,1.18,0,1.76,0c0,5.31,0,10.56,0,15.88c-0.53,0-1.06,0-1.71,0c0-1.43,0-2.88,0-4.42
		c-1.08-0.08-3.59-0.54-4.51,0.24c-0.97,0.83-0.47,3.09-0.47,4.19c-0.64,0-1.17,0-1.82,0c0-0.86,0.38-3.3-0.29-4.02
		c-0.85-0.91-3.18-0.43-4.27-0.43c0,1.44,0,2.87,0,4.4c-0.77,0-1.45,0-2.18,0c0-5.24,0-10.44,0-15.68c0.69-0.33,1.38-0.35,2.18,0.06
		c0,3.07,0,6.16,0,9.37C35.92,72.96,37.35,72.96,38.93,72.96z"/>
</g>
</svg>
