<?xml version="1.0" encoding="utf-8"?>
<!-- Generator: Adobe Illustrator 27.1.0, SVG Export Plug-In . SVG Version: 6.00 Build 0)  -->
<svg version="1.1" id="Capa_1" xmlns="http://www.w3.org/2000/svg" xmlns:xlink="http://www.w3.org/1999/xlink" x="0px" y="0px"
	 viewBox="0 0 80 80" style="enable-background:new 0 0 80 80;" xml:space="preserve">
<path d="M79.15,51.63c-0.35,1.97-0.78,3.93-1.66,5.74c-3.17,6.53-8.33,10.4-15.55,11.33c-10.02,1.28-19.8-5.62-21.53-16.22
	c-1.75-10.72,5.33-20.3,15.35-22.3c11.24-2.24,21.67,5.2,23.29,16.53c0.02,0.12,0.06,0.24,0.1,0.37
	C79.15,48.59,79.15,50.11,79.15,51.63z M71.73,45.94c-0.15-0.17-0.27-0.33-0.41-0.47c-0.84-0.84-1.71-1.66-2.51-2.53
	c-0.45-0.49-0.71-0.41-1.14,0.02c-2.81,2.85-5.65,5.67-8.48,8.49c-0.8,0.8-0.8,0.8-1.58,0.02c-1.56-1.56-3.12-3.11-4.66-4.68
	c-0.36-0.37-0.61-0.41-0.98-0.02c-0.83,0.88-1.7,1.74-2.58,2.58c-0.37,0.35-0.42,0.59-0.02,0.98c2.88,2.85,5.74,5.71,8.59,8.59
	c0.32,0.32,0.52,0.35,0.86,0.01c4.18-4.2,8.37-8.38,12.56-12.57C71.5,46.24,71.6,46.1,71.73,45.94z"/>
<path d="M22.98,29.73c6.76,0,13.53,0,20.29,0c0.2,0,0.41-0.01,0.61,0c0.19,0.01,0.46-0.08,0.55,0.14c0.11,0.27-0.2,0.38-0.36,0.51
	c-1.17,0.97-2.26,2.04-3.23,3.21c-3.35,4.04-5.25,8.66-5.64,13.91c-0.45,6.18,1.25,11.71,4.91,16.67c0.15,0.2,0.45,0.39,0.33,0.64
	C40.32,65.09,39.96,65,39.69,65c-10.87,0-21.74,0.01-32.61,0c-3.04,0-5.09-1.53-5.73-4.12c-0.1-0.4-0.11-0.8-0.11-1.21
	c0-9.65,0.01-19.3-0.02-28.96c0-0.78,0.25-0.99,1-0.99C9.15,29.74,16.07,29.73,22.98,29.73z M18.18,59.64c3.49,0,6.99,0,10.48,0
	c1.06,0,1.06,0,1.07-1.03c0-0.56,0-1.11,0-1.67c0-1.02-0.01-1.03-1-1.03c-3.75,0-7.49,0-11.24,0c-3.34,0-6.68,0.01-10.02-0.01
	c-0.61,0-0.89,0.18-0.85,0.82c0.04,0.66,0.05,1.32,0,1.97c-0.05,0.73,0.21,0.96,0.95,0.95C11.1,59.62,14.64,59.64,18.18,59.64z
	 M14.96,51.78c2.23,0,4.46,0.03,6.69,0c1.84-0.03,1.68-0.38,1.64-2.2c-0.04-1.83-0.96-1.45-2.53-1.46c-2.07-0.01-4.13,0-6.2,0
	c-2.06,0-4.13-0.04-6.2-0.01c-1.8,0.03-2.12,0.6-1.75,2.58c0.24,1.28,0.52,1.07,1.86,1.08C10.64,51.79,12.8,51.78,14.96,51.78z"/>
<path d="M38.89,24.75c-12.13,0-24.27,0-36.4,0c-1.24,0-1.24,0-1.24-1.25c0-1.65,0.1-3.3-0.02-4.94c-0.19-2.63,1.7-5.61,5.49-5.7
	c0.2,0,0.41,0,0.61,0c21.08,0,42.15,0,63.23,0c1.73,0,3.32,0.33,4.58,1.63c0.96,0.99,1.47,2.17,1.48,3.55c0.01,1.9,0.01,3.8,0,5.7
	c0,1-0.01,1.01-1.02,1.01C63.36,24.76,51.12,24.75,38.89,24.75z"/>
</svg>
